<svg width="1440" height="720" viewBox="0 0 1440 720" fill="none" xmlns="http://www.w3.org/2000/svg">
<rect width="1440" height="720" fill="#09090A"/>
<path d="M0 400L15 437.3C30 475 60 549 90 586.7C120 624 150 624 180 618.7C210 613 240 603 270 613.3C300 624 330 656 360 629.3C390 603 420 517 450 501.3C480 485 510 539 540 538.7C570 539 600 485 630 464C660 443 690 453 720 496C750 539 780 613 810 634.7C840 656 870 624 900 608C930 592 960 592 990 608C1020 624 1050 656 1080 629.3C1110 603 1140 517 1170 506.7C1200 496 1230 560 1260 581.3C1290 603 1320 581 1350 565.3C1380 549 1410 539 1425 533.3L1440 528V720H1425C1410 720 1380 720 1350 720C1320 720 1290 720 1260 720C1230 720 1200 720 1170 720C1140 720 1110 720 1080 720C1050 720 1020 720 990 720C960 720 930 720 900 720C870 720 840 720 810 720C780 720 750 720 720 720C690 720 660 720 630 720C600 720 570 720 540 720C510 720 480 720 450 720C420 720 390 720 360 720C330 720 300 720 270 720C240 720 210 720 180 720C150 720 120 720 90 720C60 720 30 720 15 720H0V400Z" fill="black"/>
</svg>
